<svg width="16" height="14" viewBox="0 0 16 14" fill="none" xmlns="http://www.w3.org/2000/svg">
<path d="M8.65025 12.6474C8.56074 12.7414 8.51127 12.8666 8.5124 12.9965C8.51354 13.1276 8.56612 13.253 8.65883 13.3457C8.75153 13.4384 8.87694 13.491 9.00804 13.4922C9.13794 13.4933 9.26313 13.4438 9.35714 13.3543L15.3535 7.35798C15.3535 7.35796 15.3535 7.35794 15.3535 7.35792C15.4472 7.26416 15.4999 7.13703 15.4999 7.00448C15.4999 6.87192 15.4472 6.74479 15.3535 6.65103L8.65025 12.6474ZM8.65025 12.6474L12.9396 8.35803L13.7932 7.50448L12.5861 7.50448L1.00009 7.50448C0.867483 7.50448 0.740306 7.4518 0.646538 7.35803C0.55277 7.26426 0.500092 7.13708 0.500092 7.00448C0.500092 6.87187 0.55277 6.74469 0.646538 6.65092C0.740306 6.55715 0.867483 6.50448 1.00009 6.50448L12.5861 6.50448L13.7932 6.50448L12.9396 5.65092L8.6467 1.35798C8.64668 1.35796 8.64666 1.35794 8.64665 1.35792C8.55294 1.26416 8.50031 1.13703 8.50031 1.00448C8.50031 0.871943 8.55292 0.744835 8.64659 0.651081C8.74036 0.557346 8.86751 0.504689 9.00009 0.504689C9.13265 0.504689 9.25978 0.557327 9.35354 0.651029C9.35356 0.651046 9.35357 0.651064 9.35359 0.651081L15.3535 6.65098L8.65025 12.6474Z" stroke="white"/>
</svg>
