<svg width="182" height="212" viewBox="0 0 182 212" fill="none" xmlns="http://www.w3.org/2000/svg">
<path d="M44.0543 211.584H107.529C160.425 211.584 181.584 190.425 181.584 137.529V74.0543C181.584 21.1584 160.425 0 107.529 0H44.0543C-8.84164 0 -30 21.1584 -30 74.0543V137.529C-30 190.425 -8.84164 211.584 44.0543 211.584Z" fill="#CB9FD2"/>
<path d="M50.296 43.171C50.296 48.1432 49.3439 52.9038 47.6512 57.2413C43.3137 68.2437 33.8983 76.8128 22.2612 79.9865C19.0874 80.8329 15.7021 81.3618 12.2109 81.3618C8.71981 81.3618 5.33448 80.9387 2.16072 79.9865C-9.47648 76.8128 -18.8916 68.3494 -23.2291 57.2413C-24.9218 52.9038 -25.8739 48.1432 -25.8739 43.171C-25.8739 22.1184 -8.84163 5.08594 12.2109 5.08594C33.2635 5.08594 50.296 22.1184 50.296 43.171Z" fill="#9BE7BF"/>
<path d="M181.055 43.4835C181.055 48.4557 180.103 53.2163 178.41 57.5538C174.072 68.5562 164.657 77.1253 153.02 80.299C149.846 81.1454 146.461 81.6743 142.97 81.6743C139.478 81.6743 136.093 81.2512 132.919 80.299C121.282 77.1253 111.867 68.6619 107.53 57.5538C105.837 53.2163 104.885 48.4557 104.885 43.4835C104.885 22.4309 121.917 5.39844 142.97 5.39844C164.022 5.39844 181.055 22.4309 181.055 43.4835Z" fill="#9BE7BF"/>
<path d="M181.055 173.601C181.055 178.573 180.103 183.334 178.41 187.671C174.072 198.673 164.657 207.242 153.02 210.416C149.846 211.263 146.461 211.792 142.97 211.792C139.478 211.792 136.093 211.368 132.919 210.416C121.282 207.242 111.867 198.779 107.53 187.671C105.837 183.334 104.885 178.573 104.885 173.601C104.885 152.548 121.917 135.516 142.97 135.516C164.022 135.516 181.055 152.548 181.055 173.601Z" fill="#9BE7BF"/>
<path d="M50.296 173.601C50.296 178.573 49.3439 183.334 47.6512 187.671C43.3137 198.673 33.8983 207.242 22.2612 210.416C19.0874 211.263 15.7021 211.792 12.2109 211.792C8.71981 211.792 5.33448 211.368 2.16072 210.416C-9.47648 207.242 -18.8916 198.779 -23.2291 187.671C-24.9218 183.334 -25.8739 178.573 -25.8739 173.601C-25.8739 152.548 -8.84163 135.516 12.2109 135.516C33.2635 135.516 50.296 152.548 50.296 173.601Z" fill="#9BE7BF"/>
<rect x="16.9718" y="57.4453" width="117.661" height="96.4821" rx="5.88306" fill="#721C1C"/>
</svg>
