<svg width="105" height="212" viewBox="0 0 105 212" fill="none" xmlns="http://www.w3.org/2000/svg">
<path fill-rule="evenodd" clip-rule="evenodd" d="M80.3153 187.314C76.1692 191.46 69.4292 191.46 65.2832 187.314C61.1372 183.168 61.1372 176.429 65.2832 172.283C69.4292 168.137 76.1692 168.137 80.3153 172.283C84.4613 176.429 84.4613 183.168 80.3153 187.314ZM6.51604 113.515C2.37002 117.661 -4.37003 117.661 -8.51605 113.515C-12.6621 109.369 -12.6621 102.631 -8.51605 98.4844C-4.37003 94.3385 2.37002 94.3385 6.51604 98.4844C10.6621 102.631 10.6621 109.369 6.51604 113.515ZM-67.5915 187.624C-71.7375 191.77 -78.4775 191.77 -82.6236 187.624C-86.7696 183.478 -86.7696 176.737 -82.6236 172.591C-78.4775 168.445 -71.7375 168.445 -67.5915 172.591C-63.4454 176.737 -63.4454 183.478 -67.5915 187.624ZM-67.2832 39.716C-71.4186 43.862 -78.1692 43.862 -82.3153 39.716C-86.4613 35.5699 -86.4613 28.8316 -82.3153 24.6855C-78.1692 20.5396 -71.4186 20.5396 -67.2832 24.6855C-63.1372 28.8316 -63.1372 35.5699 -67.2832 39.716ZM65.5915 24.375C69.7375 20.2289 76.4775 20.2289 80.6236 24.375C84.7696 28.521 84.7696 35.2621 80.6236 39.4081C76.4775 43.5541 69.7375 43.5541 65.5915 39.4081C61.4454 35.2621 61.4454 28.521 65.5915 24.375ZM59.1492 151.107L27.6926 119.651C32.9336 109.871 31.7961 100.991 27.6926 92.3485L59.4575 60.5744C71.3003 66.2087 85.8539 64.2534 95.6555 54.4411C108.115 41.9925 108.115 21.7932 95.6555 9.34451C83.2068 -3.11484 63.0082 -3.11484 50.5595 9.34451C40.7579 19.1461 38.7912 33.6986 44.4256 45.5414L12.65 77.3181C4.00713 73.204 -4.86964 72.0665 -14.65 77.3181L-46.1066 45.8623C-41.6948 35.2314 -42.439 19.4541 -52.2406 9.65247C-64.6999 -2.80688 -84.8985 -2.80688 -97.3472 9.65247C-109.807 22.1118 -109.807 42.3001 -97.3472 54.7594C-87.5456 64.561 -71.7694 65.3046 -61.1386 60.8927L-29.6819 92.3485C-34.9336 102.129 -33.7961 111.008 -29.6819 119.651L-61.4575 151.425C-73.3003 145.791 -87.8539 147.757 -97.6555 157.558C-110.115 170.007 -110.115 190.206 -97.6555 202.655C-85.2068 215.114 -65.0083 215.114 -52.5595 202.655C-42.7473 192.853 -40.7912 178.301 -46.4256 166.458L-14.65 134.692C-6.00714 138.795 2.86963 139.933 12.65 134.692L44.1066 166.15C39.7055 176.77 40.439 192.545 50.2512 202.347C62.6999 214.806 82.8985 214.806 95.3472 202.347C107.807 189.898 107.807 169.699 95.3472 157.25C85.5456 147.438 69.7694 146.695 59.1492 151.107Z" fill="#FF7676"/>
</svg>
