<svg width="39" height="39" viewBox="0 0 39 39" fill="none" xmlns="http://www.w3.org/2000/svg">
<path d="M0 19.5L0 39L39 39L39 19.5L0 19.5ZM19.5 9.75C19.5 7.16414 18.4728 4.68419 16.6443 2.85571C14.8158 1.02723 12.3359 0 9.75 0C7.16414 0 4.68419 1.02723 2.85571 2.85571C1.02723 4.68419 0 7.16414 0 9.75C0 12.3359 1.02723 14.8158 2.85571 16.6443C4.68419 18.4728 7.16414 19.5 9.75 19.5C12.3359 19.5 14.8158 18.4728 16.6443 16.6443C18.4728 14.8158 19.5 12.3359 19.5 9.75ZM39 9.75C39 7.16414 37.9728 4.68419 36.1443 2.85571C34.3158 1.02723 31.8359 0 29.25 0C26.6641 0 24.1842 1.02723 22.3557 2.85571C20.5272 4.68419 19.5 7.16414 19.5 9.75C19.5 12.3359 20.5272 14.8158 22.3557 16.6443C24.1842 18.4728 26.6641 19.5 29.25 19.5C31.8359 19.5 34.3158 18.4728 36.1443 16.6443C37.9728 14.8158 39 12.3359 39 9.75Z" fill="#06BF9E"/>
</svg>
