<svg width="39" height="39" viewBox="0 0 39 39" fill="none" xmlns="http://www.w3.org/2000/svg">
<path d="M19.5 0H0V39H19.5V0ZM29.25 19.5C31.8359 19.5 34.3158 18.4728 36.1443 16.6443C37.9728 14.8158 39 12.3359 39 9.75C39 7.16414 37.9728 4.68419 36.1443 2.85571C34.3158 1.02723 31.8359 0 29.25 0C26.6641 0 24.1842 1.02723 22.3557 2.85571C20.5272 4.68419 19.5 7.16414 19.5 9.75C19.5 12.3359 20.5272 14.8158 22.3557 16.6443C24.1842 18.4728 26.6641 19.5 29.25 19.5ZM29.25 39C31.8359 39 34.3158 37.9728 36.1443 36.1443C37.9728 34.3158 39 31.8359 39 29.25C39 26.6641 37.9728 24.1842 36.1443 22.3557C34.3158 20.5272 31.8359 19.5 29.25 19.5C26.6641 19.5 24.1842 20.5272 22.3557 22.3557C20.5272 24.1842 19.5 26.6641 19.5 29.25C19.5 31.8359 20.5272 34.3158 22.3557 36.1443C24.1842 37.9728 26.6641 39 29.25 39Z" fill="#59F1A1"/>
</svg>
