<svg width="80" height="69" viewBox="0 0 80 69" fill="none" xmlns="http://www.w3.org/2000/svg">
<path d="M46.0846 41.1485C43.3162 28.0918 30.2556 22.1581 16.9265 24.4703C18.4548 17.1446 25.9436 11.1548 30.8098 5.58665C31.5 4.79707 31.8556 3.40845 30.8098 2.66442C28.2445 0.839255 25.8503 0.27098 23.6447 0.559104C23.4918 0.175698 23.0868 -0.110148 22.5608 0.0413163C14.7321 2.29885 9.66236 9.95748 6.27049 16.3046C1.7947 24.6818 -0.450658 34.3797 0.0753452 43.6884C0.904763 58.3642 15.2121 72.3581 32.2494 68.2837C44.6873 65.3095 48.2176 51.2089 46.0846 41.1485ZM14.207 52.8921C14.2082 52.8871 14.2115 52.8841 14.2128 52.8796C14.2907 52.6043 14.3574 52.3265 14.4283 52.049C14.6588 52.3215 14.8681 52.6241 15.053 52.9532C14.7607 52.9881 14.4764 53.0105 14.2045 53.0158C14.2028 52.9726 14.2086 52.9338 14.207 52.8921ZM10.6033 18.4516C10.8089 18.5321 11.0269 18.583 11.254 18.6023C10.5884 19.8247 9.97447 21.0683 9.42153 22.3396C9.20475 22.2823 8.9776 22.2489 8.74589 22.2492C9.30879 20.9624 9.93883 19.7002 10.6033 18.4516ZM8.89428 55.7042C9.42982 56.211 10.0043 56.6965 10.6024 57.1642C10.5129 57.2701 10.4371 57.384 10.3728 57.5036C9.83976 56.9323 9.33656 56.3386 8.89428 55.7042ZM24.2607 55.6537C23.5743 54.833 23.0557 53.9269 22.7299 52.9373C22.7221 52.8644 22.6959 52.7915 22.6528 52.7186C22.5525 52.3781 22.4734 52.0285 22.4228 51.6671C23.5486 53.0686 24.4534 54.6296 25.2928 56.2072C24.9309 56.0558 24.5877 55.8697 24.2607 55.6537Z" fill="#034C59"/>
<path d="M48.6806 22.108C50.1873 16.5346 54.2967 12.6873 57.2819 7.66085C57.7673 6.84355 57.5766 5.57262 56.5603 5.14024C54.702 4.34952 53.032 3.47224 51.1742 2.82121C50.6117 1.723 48.9139 1.00212 47.6141 2.0749C45.3157 3.97181 42.8063 6.40472 40.8013 9.12273C38.1427 12.1095 36.2335 15.7348 35.5993 19.2219C35.5243 19.6349 35.6022 20.0536 35.7788 20.4355C35.6831 20.5877 35.5869 20.738 35.4907 20.8906C35.0053 21.6609 35.2818 22.696 36.1353 23.1421C46.2549 28.4263 50.441 37.0305 50.1429 46.0963C49.6306 47.4189 49.5005 48.8474 49.6957 50.2834C48.8766 54.8456 47.001 59.4138 44.2309 63.6328C43.6083 64.5807 43.8404 65.4678 44.4481 66.0691C44.6073 66.5436 45.0255 66.9449 45.7774 67.1005C61.9107 70.438 78.1413 63.367 79.8917 47.2465C81.5207 32.2459 64.4582 19.6041 48.6806 22.108ZM54.8181 63.793C54.8749 63.744 54.9255 63.6901 54.9814 63.64C56.4624 63.5348 57.8162 63.1537 58.9664 62.5406C58.9797 62.593 58.9884 62.6412 59.0021 62.694C59.0394 62.8386 59.1198 62.9483 59.1841 63.0721C57.7607 63.4035 56.3004 63.6499 54.8181 63.793ZM66.2613 35.5906C66.1083 35.8476 65.974 36.1058 65.8389 36.3643C65.8281 36.2921 65.8264 36.2177 65.8144 36.1456C65.8347 35.6119 65.9375 35.0618 66.0959 34.5011C66.1129 34.5118 66.1319 34.5209 66.1489 34.5315C66.2302 34.8405 66.2965 35.1556 66.3483 35.4764C66.3214 35.5158 66.2865 35.5489 66.2613 35.5906ZM73.9689 51.7673C73.9751 51.415 73.9689 51.0601 73.9552 50.7029C74.2081 50.3096 74.441 49.9061 74.6392 49.4885C74.4767 50.2861 74.24 51.0377 73.9689 51.7673Z" fill="#034C59"/>
</svg>
