<svg width="90" height="67" viewBox="0 0 90 67" fill="none" xmlns="http://www.w3.org/2000/svg">
<g id="SVG_animate-8_5_2024,-4_10_15 PM 4" clip-path="url(#clip0_8655_1378)">
<g id="Group">
<g id="Group_2">
<path id="Vector" d="M43.7333 0.434243C43.7804 0.434717 43.833 0.437046 43.8801 0.43752C45.9356 0.521219 47.675 1.9188 48.1184 3.8395L57.9608 46.5078L64.1297 31.6072C64.8182 29.9409 66.513 28.8532 68.3886 28.8721L84.2605 29.0321C86.7646 29.0574 88.775 31.0191 88.7509 33.4136C88.7268 35.8082 86.6772 37.729 84.1731 37.7038L71.4184 37.5752L60.9415 62.8789C60.2087 64.651 58.3707 65.7534 56.3647 65.6036C54.3776 65.4505 52.7284 64.0717 52.2974 62.2106L42.9491 21.6794L33.9823 49.287C33.4464 50.9423 31.9255 52.1307 30.1232 52.3105C28.3284 52.485 26.5761 51.627 25.6958 50.1104L18.063 37.039L4.82479 36.9055C2.32088 36.8803 0.310606 34.9186 0.334748 32.524C0.358891 30.1294 2.4083 28.2086 4.91222 28.2339L20.7822 28.3939C22.4095 28.4103 23.908 29.2585 24.6995 30.6177L28.4595 37.0592L39.364 3.48314C39.9582 1.65027 41.7392 0.414138 43.7333 0.434243Z" fill="#D90368">
                                    <animate attributeName="d" values="M43.7333 0.434243C43.7804 0.434717 43.833 0.437046 43.8801 0.43752C45.9356 0.521219 47.675 1.9188 48.1184 3.8395L57.9608 46.5078L64.1297 31.6072C64.8182 29.9409 66.513 28.8532 68.3886 28.8721L84.2605 29.0321C86.7646 29.0574 88.775 31.0191 88.7509 33.4136C88.7268 35.8082 86.6772 37.729 84.1731 37.7038L71.4184 37.5752L60.9415 62.8789C60.2087 64.651 58.3707 65.7534 56.3647 65.6036C54.3776 65.4505 52.7284 64.0717 52.2974 62.2106L42.9491 21.6794L33.9823 49.287C33.4464 50.9423 31.9255 52.1307 30.1232 52.3105C28.3284 52.485 26.5761 51.627 25.6958 50.1104L18.063 37.039L4.82479 36.9055C2.32088 36.8803 0.310606 34.9186 0.334748 32.524C0.358891 30.1294 2.4083 28.2086 4.91222 28.2339L20.7822 28.3939C22.4095 28.4103 23.908 29.2585 24.6995 30.6177L28.4595 37.0592L39.364 3.48314C39.9582 1.65027 41.7392 0.414138 43.7333 0.434243Z;M45.4888 0.434243C45.4418 0.434717 45.3891 0.437046 45.3421 0.43752C43.2866 0.521219 41.5471 1.9188 41.1037 3.8395L31.2613 46.5078L25.0925 31.6072C24.404 29.9409 22.7092 28.8532 20.8336 28.8721L4.96165 29.0321C2.45755 29.0574 0.447128 31.0191 0.47127 33.4136C0.495413 35.8082 2.54498 37.729 5.04908 37.7038L17.8038 37.5752L28.2807 62.8789C29.0135 64.651 30.8514 65.7534 32.8574 65.6036C34.8446 65.4505 36.4938 64.0717 36.9247 62.2106L46.2731 21.6794L55.2398 49.287C55.7758 50.9423 57.2967 52.1307 59.099 52.3105C60.8938 52.485 62.6461 51.627 63.5263 50.1104L71.1592 37.039L84.3974 36.9055C86.9013 36.8803 88.9116 34.9186 88.8874 32.524C88.8633 30.1294 86.8139 28.2086 84.3099 28.2339L68.4399 28.3939C66.8127 28.4103 65.3142 29.2585 64.5227 30.6177L60.7627 37.0592L49.8581 3.48314C49.264 1.65027 47.4829 0.414138 45.4888 0.434243Z;M43.7333 0.434243C43.7804 0.434717 43.833 0.437046 43.8801 0.43752C45.9356 0.521219 47.675 1.9188 48.1184 3.8395L57.9608 46.5078L64.1297 31.6072C64.8182 29.9409 66.513 28.8532 68.3886 28.8721L84.2605 29.0321C86.7646 29.0574 88.775 31.0191 88.7509 33.4136C88.7268 35.8082 86.6772 37.729 84.1731 37.7038L71.4184 37.5752L60.9415 62.8789C60.2087 64.651 58.3707 65.7534 56.3647 65.6036C54.3776 65.4505 52.7284 64.0717 52.2974 62.2106L42.9491 21.6794L33.9823 49.287C33.4464 50.9423 31.9255 52.1307 30.1232 52.3105C28.3284 52.485 26.5761 51.627 25.6958 50.1104L18.063 37.039L4.82479 36.9055C2.32088 36.8803 0.310606 34.9186 0.334748 32.524C0.358891 30.1294 2.4083 28.2086 4.91222 28.2339L20.7822 28.3939C22.4095 28.4103 23.908 29.2585 24.6995 30.6177L28.4595 37.0592L39.364 3.48314C39.9582 1.65027 41.7392 0.414138 43.7333 0.434243Z" begin="0s" dur="3s" repeatCount="1" fill="freeze" calcMode="linear" keyTimes="0;0.5;1"/></path>
</g>
</g>
</g>
<defs>
<clipPath id="clip0_8655_1378">
<rect width="88.5642" height="65.7136" fill="white" transform="translate(0.662598) rotate(0.577642)"/>
</clipPath>
</defs>
</svg>