<svg width="118" height="118" viewBox="0 0 118 118" fill="none" xmlns="http://www.w3.org/2000/svg">
<g filter="url(#filter0_d_8352_1410)">
<path fill-rule="evenodd" clip-rule="evenodd" d="M101.192 97.1911C99.0407 99.3423 95.5435 99.3423 93.3922 97.1911C91.241 95.0399 91.241 91.5436 93.3922 89.3923C95.5435 87.2411 99.0407 87.2411 101.192 89.3923C103.343 91.5436 103.343 95.0399 101.192 97.1911ZM62.8998 58.8992C60.7486 61.0505 57.2514 61.0505 55.1002 58.8992C52.9489 56.748 52.9489 53.2517 55.1002 51.1004C57.2514 48.9492 60.7486 48.9492 62.8998 51.1004C65.0511 53.2517 65.0511 56.748 62.8998 58.8992ZM24.4478 97.3523C22.2966 99.5035 18.7994 99.5035 16.6482 97.3523C14.4969 95.201 14.4969 91.7033 16.6482 89.5521C18.7994 87.4008 22.2966 87.4008 24.4478 89.5521C26.5991 91.7033 26.5991 95.201 24.4478 97.3523ZM24.6078 20.6074C22.4621 22.7586 18.9594 22.7586 16.8081 20.6074C14.6569 18.4561 14.6569 14.9598 16.8081 12.8085C18.9594 10.6573 22.4621 10.6573 24.6078 12.8085C26.759 14.9598 26.759 18.4561 24.6078 20.6074ZM93.5522 12.6474C95.7034 10.4961 99.2006 10.4961 101.352 12.6474C103.503 14.7986 103.503 18.2964 101.352 20.4476C99.2006 22.5988 95.7034 22.5988 93.5522 20.4476C91.4009 18.2964 91.4009 14.7986 93.5522 12.6474ZM90.2095 78.4044L73.8877 62.083C76.6071 57.0083 76.0169 52.4012 73.8877 47.9167L90.3695 31.4301C96.5143 34.3536 104.066 33.339 109.151 28.2477C115.616 21.7885 115.616 11.3078 109.151 4.84857C102.692 -1.61619 92.2118 -1.61619 85.7526 4.84857C80.6668 9.93431 79.6464 17.4851 82.5699 23.6299L66.0825 40.1179C61.598 37.9832 56.9922 37.393 51.9175 40.1179L35.5956 23.7965C37.8848 18.2804 37.4987 10.0941 32.4129 5.00836C25.9482 -1.4564 15.4678 -1.4564 9.00852 5.00836C2.54377 11.4731 2.54377 21.9481 9.00852 28.4129C14.0943 33.4986 22.28 33.8844 27.796 31.5953L44.1179 47.9167C41.393 52.9914 41.9832 57.5985 44.1179 62.083L27.6305 78.5695C21.4857 75.6461 13.9343 76.6661 8.84856 81.7519C2.38381 88.2111 2.38381 98.6919 8.84856 105.151C15.3078 111.616 25.7882 111.616 32.2474 105.151C37.3387 100.065 38.3536 92.5145 35.4301 86.3697L51.9175 69.8872C56.402 72.0163 61.0078 72.6065 66.0825 69.8872L82.4044 86.2099C80.1208 91.7204 80.5014 99.9056 85.5926 104.991C92.0519 111.456 102.532 111.456 108.991 104.991C115.456 98.532 115.456 88.0514 108.991 81.5921C103.906 76.5009 95.72 76.1152 90.2095 78.4044Z" fill="#FF7676"/>
</g>
<defs>
<filter id="filter0_d_8352_1410" x="0" y="0" width="118" height="118" filterUnits="userSpaceOnUse" color-interpolation-filters="sRGB">
<feFlood flood-opacity="0" result="BackgroundImageFix"/>
<feColorMatrix in="SourceAlpha" type="matrix" values="0 0 0 0 0 0 0 0 0 0 0 0 0 0 0 0 0 0 127 0" result="hardAlpha"/>
<feOffset dy="4"/>
<feGaussianBlur stdDeviation="2"/>
<feComposite in2="hardAlpha" operator="out"/>
<feColorMatrix type="matrix" values="0 0 0 0 0 0 0 0 0 0 0 0 0 0 0 0 0 0 0.25 0"/>
<feBlend mode="normal" in2="BackgroundImageFix" result="effect1_dropShadow_8352_1410"/>
<feBlend mode="normal" in="SourceGraphic" in2="effect1_dropShadow_8352_1410" result="shape"/>
</filter>
</defs>
</svg>
