<svg width="134" height="135" viewBox="0 0 134 135" fill="none" xmlns="http://www.w3.org/2000/svg">
<path d="M46.9 134H87.1C120.6 134 134 120.6 134 87.1V46.9C134 13.4 120.6 0 87.1 0H46.9C13.4 0 0 13.4 0 46.9V87.1C0 120.6 13.4 134 46.9 134Z" fill="#CB9FD2"/>
<path d="M50.853 27.3388C50.853 30.4878 50.25 33.5028 49.178 36.2498C46.431 43.2178 40.468 48.6448 33.098 50.6548C31.088 51.1908 28.944 51.5258 26.733 51.5258C24.522 51.5258 22.378 51.2578 20.368 50.6548C12.998 48.6448 7.03516 43.2848 4.28816 36.2498C3.21616 33.5028 2.61316 30.4878 2.61316 27.3388C2.61316 14.0058 13.4 3.21875 26.733 3.21875C40.066 3.21875 50.853 14.0058 50.853 27.3388Z" fill="#9BE7BF"/>
<path d="M133.665 27.5419C133.665 30.6909 133.062 33.7059 131.99 36.4529C129.243 43.4209 123.28 48.8479 115.91 50.8579C113.9 51.3939 111.756 51.7289 109.545 51.7289C107.334 51.7289 105.19 51.4609 103.18 50.8579C95.81 48.8479 89.8472 43.4879 87.1002 36.4529C86.0282 33.7059 85.4252 30.6909 85.4252 27.5419C85.4252 14.2089 96.212 3.42188 109.545 3.42188C122.878 3.42188 133.665 14.2089 133.665 27.5419Z" fill="#9BE7BF"/>
<path d="M133.665 109.948C133.665 113.097 133.062 116.112 131.99 118.859C129.243 125.827 123.28 131.254 115.91 133.264C113.9 133.8 111.756 134.135 109.545 134.135C107.334 134.135 105.19 133.867 103.18 133.264C95.81 131.254 89.8472 125.894 87.1002 118.859C86.0282 116.112 85.4252 113.097 85.4252 109.948C85.4252 96.6151 96.212 85.8281 109.545 85.8281C122.878 85.8281 133.665 96.6151 133.665 109.948Z" fill="#9BE7BF"/>
<path d="M50.853 109.948C50.853 113.097 50.25 116.112 49.178 118.859C46.431 125.827 40.468 131.254 33.098 133.264C31.088 133.8 28.944 134.135 26.733 134.135C24.522 134.135 22.378 133.867 20.368 133.264C12.998 131.254 7.03516 125.894 4.28816 118.859C3.21616 116.112 2.61316 113.097 2.61316 109.948C2.61316 96.6151 13.4 85.8281 26.733 85.8281C40.066 85.8281 50.853 96.6151 50.853 109.948Z" fill="#9BE7BF"/>
<rect x="29.7482" y="36.3828" width="74.5171" height="61.104" rx="3.72585" fill="#721C1C"/>
</svg>
