<svg width="24" height="16" viewBox="0 0 24 16" fill="none" xmlns="http://www.w3.org/2000/svg">
<path fill-rule="evenodd" clip-rule="evenodd" d="M9.75474 10.5447V4.37173C11.9784 5.4029 13.7006 6.39904 15.7375 7.473C14.0575 8.39118 11.9784 9.42141 9.75474 10.5447ZM22.1472 1.30161C21.7636 0.803576 21.1098 0.415898 20.4138 0.28755C18.3681 -0.0953052 5.60541 -0.0963942 3.56076 0.28755C3.00262 0.390664 2.50562 0.639905 2.07868 1.02715C0.279741 2.67264 0.843442 11.4969 1.27706 12.9263C1.45939 13.545 1.69511 13.9912 1.99197 14.2841C2.37444 14.6713 2.8981 14.9379 3.4996 15.0575C5.18402 15.4009 13.8618 15.5929 20.3782 15.1091C20.9786 15.006 21.5101 14.7308 21.9292 14.3271C23.5925 12.6881 23.4791 3.36835 22.1472 1.30161Z" fill="white"/>
</svg>
