<svg width="20" height="19" viewBox="0 0 20 19" fill="none" xmlns="http://www.w3.org/2000/svg">
<path d="M1.70335 0H18.7819C19.3609 0 19.8824 0.513933 19.8824 1.08446V17.9155C19.8824 18.4861 19.3609 19 18.7819 19H1.70335C1.12443 19 0.602943 18.4861 0.602943 17.9155V1.08446C0.602943 0.513933 1.12443 0 1.70335 0ZM14.2942 10.6684H16.9572L17.073 8.15812H14.2942V6.30412C14.2942 5.59119 14.4387 5.19136 15.3649 5.19136H16.9859L17.0443 2.85174C17.0443 2.85174 16.3208 2.73763 15.2788 2.73763C12.7315 2.73763 11.6024 4.30681 11.6024 5.9901V8.15812H9.72116V10.6684H11.6024V17.6289H14.2942V10.6684Z" fill="white"/>
</svg>
