<svg width="18" height="17" viewBox="0 0 18 17" fill="none" xmlns="http://www.w3.org/2000/svg">
<path d="M8.77205 4.13169C7.89616 4.13169 7.03992 4.38743 6.31166 4.86654C5.58338 5.34566 5.01575 6.02666 4.68056 6.82339C4.34537 7.62016 4.25767 8.49691 4.42855 9.34271C4.59942 10.1885 5.02121 10.9655 5.64057 11.5753C6.25991 12.185 7.049 12.6003 7.90804 12.7686C8.76719 12.9368 9.65756 12.8504 10.4668 12.5204C11.2761 12.1904 11.9677 11.6316 12.4543 10.9146C12.941 10.1974 13.2007 9.35441 13.2007 8.49202C13.2021 7.91901 13.0886 7.35142 12.8665 6.82179C12.6444 6.29209 12.3183 5.81086 11.9068 5.40568C11.4952 5.0005 11.0065 4.67938 10.4685 4.46075C9.93051 4.24212 9.35404 4.1303 8.77205 4.13169ZM8.77205 11.3316C8.20163 11.3316 7.64405 11.165 7.16976 10.853C6.69557 10.5411 6.32588 10.0976 6.1076 9.5787C5.88931 9.05982 5.83221 8.48893 5.94348 7.93804C6.05476 7.38726 6.32943 6.88125 6.73273 6.48414C7.13606 6.08706 7.64999 5.81662 8.2094 5.70706C8.76892 5.5975 9.34875 5.65372 9.87575 5.86865C10.4028 6.08356 10.8532 6.44755 11.17 6.91443C11.4869 7.38141 11.6561 7.93039 11.6561 8.49202C11.6561 9.24508 11.3522 9.96741 10.8114 10.4999C10.2705 11.0324 9.53691 11.3316 8.77205 11.3316ZM14.4212 3.95089C14.4212 4.16124 14.3579 4.36686 14.2392 4.54174C14.1205 4.71663 13.9518 4.85295 13.7545 4.93344C13.5571 5.01393 13.3399 5.03499 13.1304 4.99396C12.9208 4.95292 12.7284 4.85163 12.5773 4.7029C12.4263 4.55417 12.3234 4.36468 12.2817 4.15838C12.24 3.95207 12.2614 3.73825 12.3431 3.54391C12.4249 3.34959 12.5634 3.1835 12.741 3.06664C12.9186 2.94977 13.1274 2.8874 13.3411 2.8874C13.6275 2.8874 13.9023 2.99945 14.1049 3.19889C14.3075 3.39833 14.4212 3.66884 14.4212 3.95089ZM17.3485 5.01439C17.3799 3.69228 16.879 2.41159 15.9551 1.45167C14.9853 0.530356 13.6839 0.0254814 12.3366 0.0478574C10.9324 -0.0159525 6.61175 -0.0159525 5.20757 0.0478574C3.86517 0.0192387 2.56528 0.512085 1.58906 1.41977C0.665142 2.37968 0.164254 3.66038 0.195665 4.98249C0.130856 6.36502 0.130856 10.619 0.195665 12.0016C0.164254 13.3237 0.665142 14.6044 1.58906 15.5643C2.56528 16.472 3.86517 16.9648 5.20757 16.9362C6.63335 17.0213 10.9108 17.0213 12.3366 16.9362C13.6794 16.9671 14.9801 16.474 15.9551 15.5643C16.879 14.6044 17.3799 13.3237 17.3485 12.0016C17.4133 10.619 17.4133 6.36502 17.3485 4.98249V5.01439ZM15.5122 13.5224C15.3655 13.8882 15.1442 14.2203 14.8617 14.4984C14.5793 14.7765 14.2419 14.9945 13.8704 15.1389C12.1935 15.4727 10.4793 15.5871 8.77205 15.4792C7.06844 15.5872 5.35772 15.4728 3.68455 15.1389C3.31306 14.9945 2.97563 14.7765 2.69321 14.4984C2.41078 14.2203 2.18939 13.8882 2.04272 13.5224C1.58906 12.3951 1.68627 9.73631 1.68627 8.50265C1.68627 7.269 1.58906 4.59963 2.04272 3.48295C2.18525 3.11357 2.40507 2.77782 2.68792 2.4975C2.97077 2.21718 3.31032 1.99855 3.68455 1.8558C5.35772 1.52184 7.06844 1.40741 8.77205 1.51548C10.4793 1.40759 12.1935 1.52202 13.8704 1.8558C14.2419 2.0002 14.5793 2.21819 14.8617 2.49626C15.1442 2.77433 15.3655 3.10655 15.5122 3.47232C15.9659 4.59963 15.8578 7.25836 15.8578 8.49202C15.8578 9.72568 15.9659 12.3951 15.5122 13.5117V13.5224Z" fill="white"/>
</svg>
