<svg width="40" height="39" viewBox="0 0 40 39" fill="none" xmlns="http://www.w3.org/2000/svg">
<path d="M20 0H39.5V39H20V0ZM10.25 19.5C7.66414 19.5 5.18419 18.4728 3.35571 16.6443C1.52723 14.8158 0.5 12.3359 0.5 9.75C0.5 7.16414 1.52723 4.68419 3.35571 2.85571C5.18419 1.02723 7.66414 0 10.25 0C12.8359 0 15.3158 1.02723 17.1443 2.85571C18.9728 4.68419 20 7.16414 20 9.75C20 12.3359 18.9728 14.8158 17.1443 16.6443C15.3158 18.4728 12.8359 19.5 10.25 19.5ZM10.25 39C7.66414 39 5.18419 37.9728 3.35571 36.1443C1.52723 34.3158 0.5 31.8359 0.5 29.25C0.5 26.6641 1.52723 24.1842 3.35571 22.3557C5.18419 20.5272 7.66414 19.5 10.25 19.5C12.8359 19.5 15.3158 20.5272 17.1443 22.3557C18.9728 24.1842 20 26.6641 20 29.25C20 31.8359 18.9728 34.3158 17.1443 36.1443C15.3158 37.9728 12.8359 39 10.25 39Z" fill="#F6CD03"/>
</svg>
